<mxfile modified="2023-05-01T22:24:36.509Z" host="app.diagrams.net" agent="Mozilla/5.0 (Windows NT 10.0; Win64; x64) AppleWebKit/537.36 (KHTML, like Gecko) Chrome/112.0.0.0 Safari/537.36" etag="DpyjmmJ3H6SMkZq96PKm" version="21.2.3" type="github">
  <diagram id="Ht1M8jgEwFfnCIfOTk4-" name="Page-1">
    <mxGraphModel dx="2296" dy="1111" grid="1" gridSize="10" guides="1" tooltips="1" connect="1" arrows="1" fold="1" page="1" pageScale="1" pageWidth="1169" pageHeight="827" math="0" shadow="0">
      <root>
        <mxCell id="0" />
        <mxCell id="1" parent="0" />
        <mxCell id="ovUjnCqYb-joogBGiaoR-35" style="edgeStyle=orthogonalEdgeStyle;rounded=0;orthogonalLoop=1;jettySize=auto;html=1;exitX=0.25;exitY=0;exitDx=0;exitDy=0;entryX=0.25;entryY=1;entryDx=0;entryDy=0;strokeWidth=3;" edge="1" parent="1" source="ovUjnCqYb-joogBGiaoR-29" target="ovUjnCqYb-joogBGiaoR-32">
          <mxGeometry relative="1" as="geometry" />
        </mxCell>
        <mxCell id="ovUjnCqYb-joogBGiaoR-46" style="edgeStyle=orthogonalEdgeStyle;rounded=0;orthogonalLoop=1;jettySize=auto;html=1;exitX=0.75;exitY=1;exitDx=0;exitDy=0;entryX=0.75;entryY=0;entryDx=0;entryDy=0;strokeWidth=3;startArrow=classic;startFill=1;" edge="1" parent="1" source="ovUjnCqYb-joogBGiaoR-29" target="ovUjnCqYb-joogBGiaoR-43">
          <mxGeometry relative="1" as="geometry" />
        </mxCell>
        <mxCell id="ovUjnCqYb-joogBGiaoR-29" value="&lt;h1 style=&quot;&quot;&gt;&lt;font style=&quot;font-size: 24px;&quot;&gt;&lt;b style=&quot;border-color: var(--border-color); text-align: center;&quot;&gt;EBL&lt;/b&gt;&lt;/font&gt;&lt;/h1&gt;&lt;h1 style=&quot;&quot;&gt;&lt;span style=&quot;font-weight: normal;&quot;&gt;Elatic Load Balancer&lt;/span&gt;&lt;/h1&gt;" style="text;html=1;strokeColor=default;fillColor=none;spacing=5;spacingTop=-20;whiteSpace=wrap;overflow=hidden;rounded=0;dashed=1;strokeWidth=3;resizeHeight=0;" vertex="1" parent="1">
          <mxGeometry x="9" y="610" width="240" height="240" as="geometry" />
        </mxCell>
        <mxCell id="-QjtrjUzRDEMRZ5MF8oH-47" value="infraestrucutureCore" style="text;html=1;resizable=0;points=[];autosize=1;align=left;verticalAlign=top;spacingTop=-4;fontSize=30;fontStyle=1" parent="1" vertex="1">
          <mxGeometry x="56.5" y="64.5" width="320" height="40" as="geometry" />
        </mxCell>
        <mxCell id="SCVMTBWpLvtzJIhz15lM-1" value="" style="line;strokeWidth=2;html=1;fontSize=14;" parent="1" vertex="1">
          <mxGeometry x="52.5" y="139.5" width="1060" height="10" as="geometry" />
        </mxCell>
        <mxCell id="7OVz4w7n9kzEPWy-4BBC-3" value="" style="rounded=0;whiteSpace=wrap;html=1;fillColor=#EAEDED;fontSize=22;fontColor=#FFFFFF;strokeColor=none;labelBackgroundColor=none;" parent="1" vertex="1">
          <mxGeometry x="1690" y="51" width="539" height="1220" as="geometry" />
        </mxCell>
        <mxCell id="7OVz4w7n9kzEPWy-4BBC-4" value="1" style="rounded=1;whiteSpace=wrap;html=1;fillColor=#007CBD;strokeColor=none;fontColor=#FFFFFF;fontStyle=1;fontSize=22;labelBackgroundColor=none;" parent="1" vertex="1">
          <mxGeometry x="1708" y="63" width="40" height="38" as="geometry" />
        </mxCell>
        <mxCell id="7OVz4w7n9kzEPWy-4BBC-5" value="2" style="rounded=1;whiteSpace=wrap;html=1;fillColor=#007CBD;strokeColor=none;fontColor=#FFFFFF;fontStyle=1;fontSize=22;labelBackgroundColor=none;" parent="1" vertex="1">
          <mxGeometry x="1706.5" y="185" width="40" height="38" as="geometry" />
        </mxCell>
        <mxCell id="7OVz4w7n9kzEPWy-4BBC-6" value="3" style="rounded=1;whiteSpace=wrap;html=1;fillColor=#007CBD;strokeColor=none;fontColor=#FFFFFF;fontStyle=1;fontSize=22;labelBackgroundColor=none;" parent="1" vertex="1">
          <mxGeometry x="1706.5" y="305" width="40" height="38" as="geometry" />
        </mxCell>
        <mxCell id="7OVz4w7n9kzEPWy-4BBC-7" value="4" style="rounded=1;whiteSpace=wrap;html=1;fillColor=#007CBD;strokeColor=none;fontColor=#FFFFFF;fontStyle=1;fontSize=22;labelBackgroundColor=none;" parent="1" vertex="1">
          <mxGeometry x="1706.5" y="419" width="40" height="38" as="geometry" />
        </mxCell>
        <mxCell id="7OVz4w7n9kzEPWy-4BBC-8" value="5" style="rounded=1;whiteSpace=wrap;html=1;fillColor=#007CBD;strokeColor=none;fontColor=#FFFFFF;fontStyle=1;fontSize=22;labelBackgroundColor=none;" parent="1" vertex="1">
          <mxGeometry x="1708" y="536" width="40" height="38" as="geometry" />
        </mxCell>
        <mxCell id="7OVz4w7n9kzEPWy-4BBC-9" value="6" style="rounded=1;whiteSpace=wrap;html=1;fillColor=#007CBD;strokeColor=none;fontColor=#FFFFFF;fontStyle=1;fontSize=22;labelBackgroundColor=none;" parent="1" vertex="1">
          <mxGeometry x="1709" y="651" width="40" height="38" as="geometry" />
        </mxCell>
        <mxCell id="7OVz4w7n9kzEPWy-4BBC-10" value="7" style="rounded=1;whiteSpace=wrap;html=1;fillColor=#007CBD;strokeColor=none;fontColor=#FFFFFF;fontStyle=1;fontSize=22;labelBackgroundColor=none;" parent="1" vertex="1">
          <mxGeometry x="1708.5" y="767" width="40" height="38" as="geometry" />
        </mxCell>
        <mxCell id="7OVz4w7n9kzEPWy-4BBC-11" value="8" style="rounded=1;whiteSpace=wrap;html=1;fillColor=#007CBD;strokeColor=none;fontColor=#FFFFFF;fontStyle=1;fontSize=22;labelBackgroundColor=none;" parent="1" vertex="1">
          <mxGeometry x="1709" y="885" width="40" height="38" as="geometry" />
        </mxCell>
        <mxCell id="7OVz4w7n9kzEPWy-4BBC-12" value="9" style="rounded=1;whiteSpace=wrap;html=1;fillColor=#007CBD;strokeColor=none;fontColor=#FFFFFF;fontStyle=1;fontSize=22;labelBackgroundColor=none;" parent="1" vertex="1">
          <mxGeometry x="1707" y="1005" width="40" height="38" as="geometry" />
        </mxCell>
        <mxCell id="7OVz4w7n9kzEPWy-4BBC-13" value="&lt;span&gt;Lorem ipsum dolor sit amet, consectetur adipiscing elit, sed do eiusmod tempor incididunt ut labore et dolore magna aliqua. Ut enim ad minim veniam, quis nostrud exercitation ullamco laboris nisi ut aliquip ex ea commodo consequat. Duis aute irure dolor in reprehenderit in voluptate velit esse cillum dolore eu fugiat nulla pariatur. Excepteur sint occaecat cupidatat non proident, sunt in culpa qui officia deserunt mollit anim id est laborum.&lt;/span&gt;&lt;br&gt;" style="text;html=1;align=left;verticalAlign=top;spacingTop=-4;fontSize=14;labelBackgroundColor=none;whiteSpace=wrap;" parent="1" vertex="1">
          <mxGeometry x="1759.5" y="62.5" width="449" height="118" as="geometry" />
        </mxCell>
        <mxCell id="7OVz4w7n9kzEPWy-4BBC-14" value="&lt;span&gt;Lorem ipsum dolor sit amet, consectetur adipiscing elit, sed do eiusmod tempor incididunt ut labore et dolore magna aliqua. Ut enim ad minim veniam, quis nostrud exercitation ullamco laboris nisi ut aliquip ex ea commodo consequat. Duis aute irure dolor in reprehenderit in voluptate velit esse cillum dolore eu fugiat nulla pariatur. Excepteur sint occaecat cupidatat non proident, sunt in culpa qui officia deserunt mollit anim id est laborum.&lt;/span&gt;&lt;br&gt;" style="text;html=1;align=left;verticalAlign=top;spacingTop=-4;fontSize=14;labelBackgroundColor=none;whiteSpace=wrap;" parent="1" vertex="1">
          <mxGeometry x="1758.5" y="185.5" width="450" height="115" as="geometry" />
        </mxCell>
        <mxCell id="7OVz4w7n9kzEPWy-4BBC-15" value="&lt;span&gt;Lorem ipsum dolor sit amet, consectetur adipiscing elit, sed do eiusmod tempor incididunt ut labore et dolore magna aliqua. Ut enim ad minim veniam, quis nostrud exercitation ullamco laboris nisi ut aliquip ex ea commodo consequat. Duis aute irure dolor in reprehenderit in voluptate velit esse cillum dolore eu fugiat nulla pariatur. Excepteur sint occaecat cupidatat non proident, sunt in culpa qui officia deserunt mollit anim id est laborum.&lt;/span&gt;&lt;br&gt;" style="text;html=1;align=left;verticalAlign=top;spacingTop=-4;fontSize=14;labelBackgroundColor=none;whiteSpace=wrap;" parent="1" vertex="1">
          <mxGeometry x="1758.5" y="303.5" width="450" height="117" as="geometry" />
        </mxCell>
        <mxCell id="7OVz4w7n9kzEPWy-4BBC-16" value="&lt;span&gt;Lorem ipsum dolor sit amet, consectetur adipiscing elit, sed do eiusmod tempor incididunt ut labore et dolore magna aliqua. Ut enim ad minim veniam, quis nostrud exercitation ullamco laboris nisi ut aliquip ex ea commodo consequat. Duis aute irure dolor in reprehenderit in voluptate velit esse cillum dolore eu fugiat nulla pariatur. Excepteur sint occaecat cupidatat non proident, sunt in culpa qui officia deserunt mollit anim id est laborum.&lt;/span&gt;&lt;br&gt;" style="text;html=1;align=left;verticalAlign=top;spacingTop=-4;fontSize=14;labelBackgroundColor=none;whiteSpace=wrap;" parent="1" vertex="1">
          <mxGeometry x="1758.5" y="419.5" width="450" height="121" as="geometry" />
        </mxCell>
        <mxCell id="7OVz4w7n9kzEPWy-4BBC-17" value="&lt;span&gt;Lorem ipsum dolor sit amet, consectetur adipiscing elit, sed do eiusmod tempor incididunt ut labore et dolore magna aliqua. Ut enim ad minim veniam, quis nostrud exercitation ullamco laboris nisi ut aliquip ex ea commodo consequat. Duis aute irure dolor in reprehenderit in voluptate velit esse cillum dolore eu fugiat nulla pariatur. Excepteur sint occaecat cupidatat non proident, sunt in culpa qui officia deserunt mollit anim id est laborum.&lt;/span&gt;&lt;br&gt;" style="text;html=1;align=left;verticalAlign=top;spacingTop=-4;fontSize=14;labelBackgroundColor=none;whiteSpace=wrap;" parent="1" vertex="1">
          <mxGeometry x="1759.5" y="536.5" width="449" height="114" as="geometry" />
        </mxCell>
        <mxCell id="7OVz4w7n9kzEPWy-4BBC-18" value="&lt;span&gt;Lorem ipsum dolor sit amet, consectetur adipiscing elit, sed do eiusmod tempor incididunt ut labore et dolore magna aliqua. Ut enim ad minim veniam, quis nostrud exercitation ullamco laboris nisi ut aliquip ex ea commodo consequat. Duis aute irure dolor in reprehenderit in voluptate velit esse cillum dolore eu fugiat nulla pariatur. Excepteur sint occaecat cupidatat non proident, sunt in culpa qui officia deserunt mollit anim id est laborum.&lt;/span&gt;&lt;br&gt;" style="text;html=1;align=left;verticalAlign=top;spacingTop=-4;fontSize=14;labelBackgroundColor=none;whiteSpace=wrap;" parent="1" vertex="1">
          <mxGeometry x="1759.5" y="652.5" width="450" height="118" as="geometry" />
        </mxCell>
        <mxCell id="7OVz4w7n9kzEPWy-4BBC-19" value="&lt;span&gt;Lorem ipsum dolor sit amet, consectetur adipiscing elit, sed do eiusmod tempor incididunt ut labore et dolore magna aliqua. Ut enim ad minim veniam, quis nostrud exercitation ullamco laboris nisi ut aliquip ex ea commodo consequat. Duis aute irure dolor in reprehenderit in voluptate velit esse cillum dolore eu fugiat nulla pariatur. Excepteur sint occaecat cupidatat non proident, sunt in culpa qui officia deserunt mollit anim id est laborum.&lt;/span&gt;&lt;br&gt;" style="text;html=1;align=left;verticalAlign=top;spacingTop=-4;fontSize=14;labelBackgroundColor=none;whiteSpace=wrap;" parent="1" vertex="1">
          <mxGeometry x="1759.5" y="767.5" width="449" height="113" as="geometry" />
        </mxCell>
        <mxCell id="7OVz4w7n9kzEPWy-4BBC-20" value="&lt;span&gt;Lorem ipsum dolor sit amet, consectetur adipiscing elit, sed do eiusmod tempor incididunt ut labore et dolore magna aliqua. Ut enim ad minim veniam, quis nostrud exercitation ullamco laboris nisi ut aliquip ex ea commodo consequat. Duis aute irure dolor in reprehenderit in voluptate velit esse cillum dolore eu fugiat nulla pariatur. Excepteur sint occaecat cupidatat non proident, sunt in culpa qui officia deserunt mollit anim id est laborum.&lt;/span&gt;&lt;br&gt;" style="text;html=1;align=left;verticalAlign=top;spacingTop=-4;fontSize=14;labelBackgroundColor=none;whiteSpace=wrap;" parent="1" vertex="1">
          <mxGeometry x="1759.5" y="886.5" width="449" height="124" as="geometry" />
        </mxCell>
        <mxCell id="7OVz4w7n9kzEPWy-4BBC-21" value="&lt;span&gt;Lorem ipsum dolor sit amet, consectetur adipiscing elit, sed do eiusmod tempor incididunt ut labore et dolore magna aliqua. Ut enim ad minim veniam, quis nostrud exercitation ullamco laboris nisi ut aliquip ex ea commodo consequat. Duis aute irure dolor in reprehenderit in voluptate velit esse cillum dolore eu fugiat nulla pariatur. Excepteur sint occaecat cupidatat non proident, sunt in culpa qui officia deserunt mollit anim id est laborum.&lt;/span&gt;&lt;br&gt;" style="text;html=1;align=left;verticalAlign=top;spacingTop=-4;fontSize=14;labelBackgroundColor=none;whiteSpace=wrap;" parent="1" vertex="1">
          <mxGeometry x="1759.5" y="1005.5" width="449" height="115" as="geometry" />
        </mxCell>
        <mxCell id="7OVz4w7n9kzEPWy-4BBC-22" value="10" style="rounded=1;whiteSpace=wrap;html=1;fillColor=#007CBD;strokeColor=none;fontColor=#FFFFFF;fontStyle=1;fontSize=22;labelBackgroundColor=none;" parent="1" vertex="1">
          <mxGeometry x="1708" y="1130.5" width="40" height="38" as="geometry" />
        </mxCell>
        <mxCell id="7OVz4w7n9kzEPWy-4BBC-23" value="&lt;span&gt;Lorem ipsum dolor sit amet, consectetur adipiscing elit, sed do eiusmod tempor incididunt ut labore et dolore magna aliqua. Ut enim ad minim veniam, quis nostrud exercitation ullamco laboris nisi ut aliquip ex ea commodo consequat. Duis aute irure dolor in reprehenderit in voluptate velit esse cillum dolore eu fugiat nulla pariatur. Excepteur sint occaecat cupidatat non proident, sunt in culpa qui officia deserunt mollit anim id est laborum.&lt;/span&gt;&lt;br&gt;" style="text;html=1;align=left;verticalAlign=top;spacingTop=-4;fontSize=14;labelBackgroundColor=none;whiteSpace=wrap;" parent="1" vertex="1">
          <mxGeometry x="1760.5" y="1131" width="449" height="115" as="geometry" />
        </mxCell>
        <mxCell id="ovUjnCqYb-joogBGiaoR-8" value="Private subnet" style="points=[[0,0],[0.25,0],[0.5,0],[0.75,0],[1,0],[1,0.25],[1,0.5],[1,0.75],[1,1],[0.75,1],[0.5,1],[0.25,1],[0,1],[0,0.75],[0,0.5],[0,0.25]];outlineConnect=0;gradientColor=none;html=1;whiteSpace=wrap;fontSize=12;fontStyle=0;container=1;pointerEvents=0;collapsible=0;recursiveResize=0;shape=mxgraph.aws4.group;grIcon=mxgraph.aws4.group_security_group;grStroke=0;strokeColor=#147EBA;fillColor=#E6F2F8;verticalAlign=top;align=left;spacingLeft=30;fontColor=#147EBA;dashed=0;" vertex="1" parent="1">
          <mxGeometry x="320" y="200" width="1344" height="990" as="geometry" />
        </mxCell>
        <mxCell id="ovUjnCqYb-joogBGiaoR-74" style="edgeStyle=orthogonalEdgeStyle;rounded=0;orthogonalLoop=1;jettySize=auto;html=1;exitX=0.75;exitY=0;exitDx=0;exitDy=0;entryX=0.579;entryY=-0.031;entryDx=0;entryDy=0;entryPerimeter=0;strokeWidth=3;startArrow=classic;startFill=1;" edge="1" parent="ovUjnCqYb-joogBGiaoR-8" source="ovUjnCqYb-joogBGiaoR-22" target="ovUjnCqYb-joogBGiaoR-72">
          <mxGeometry relative="1" as="geometry">
            <Array as="points">
              <mxPoint x="650" y="70" />
              <mxPoint x="1239" y="70" />
            </Array>
          </mxGeometry>
        </mxCell>
        <mxCell id="ovUjnCqYb-joogBGiaoR-22" value="" style="rounded=0;whiteSpace=wrap;html=1;fillColor=none;dashed=1;strokeWidth=3;" vertex="1" parent="ovUjnCqYb-joogBGiaoR-8">
          <mxGeometry x="109" y="120" width="721" height="590" as="geometry" />
        </mxCell>
        <mxCell id="ovUjnCqYb-joogBGiaoR-23" value="" style="sketch=0;points=[[0,0,0],[0.25,0,0],[0.5,0,0],[0.75,0,0],[1,0,0],[0,1,0],[0.25,1,0],[0.5,1,0],[0.75,1,0],[1,1,0],[0,0.25,0],[0,0.5,0],[0,0.75,0],[1,0.25,0],[1,0.5,0],[1,0.75,0]];outlineConnect=0;fontColor=#232F3E;gradientColor=#F78E04;gradientDirection=north;fillColor=#D05C17;strokeColor=#ffffff;dashed=0;verticalLabelPosition=bottom;verticalAlign=top;align=center;html=1;fontSize=12;fontStyle=0;aspect=fixed;shape=mxgraph.aws4.resourceIcon;resIcon=mxgraph.aws4.ecs;" vertex="1" parent="ovUjnCqYb-joogBGiaoR-8">
          <mxGeometry x="109" y="30" width="78" height="78" as="geometry" />
        </mxCell>
        <mxCell id="ovUjnCqYb-joogBGiaoR-24" value="&lt;font size=&quot;1&quot; style=&quot;&quot;&gt;&lt;b style=&quot;font-size: 20px;&quot;&gt;ECS&lt;/b&gt;&lt;/font&gt;" style="text;html=1;align=center;verticalAlign=middle;resizable=0;points=[];autosize=1;strokeColor=none;fillColor=none;" vertex="1" parent="ovUjnCqYb-joogBGiaoR-8">
          <mxGeometry x="187" y="30" width="60" height="40" as="geometry" />
        </mxCell>
        <mxCell id="ovUjnCqYb-joogBGiaoR-26" value="&lt;font style=&quot;font-size: 20px;&quot;&gt;Elastic Container Service&lt;/font&gt;" style="text;html=1;align=center;verticalAlign=middle;resizable=0;points=[];autosize=1;strokeColor=none;fillColor=none;" vertex="1" parent="ovUjnCqYb-joogBGiaoR-8">
          <mxGeometry x="187" y="70" width="250" height="40" as="geometry" />
        </mxCell>
        <mxCell id="ovUjnCqYb-joogBGiaoR-42" style="edgeStyle=orthogonalEdgeStyle;rounded=0;orthogonalLoop=1;jettySize=auto;html=1;exitX=0.75;exitY=0;exitDx=0;exitDy=0;entryX=0.893;entryY=0.998;entryDx=0;entryDy=0;entryPerimeter=0;startArrow=classic;startFill=1;strokeWidth=3;" edge="1" parent="ovUjnCqYb-joogBGiaoR-8" source="ovUjnCqYb-joogBGiaoR-39" target="ovUjnCqYb-joogBGiaoR-22">
          <mxGeometry relative="1" as="geometry" />
        </mxCell>
        <mxCell id="ovUjnCqYb-joogBGiaoR-39" value="&lt;h1&gt;CloudWatch&lt;/h1&gt;&lt;div style=&quot;font-size: 20px;&quot;&gt;&lt;font style=&quot;font-size: 20px;&quot;&gt;- LogsGroups&lt;/font&gt;&lt;/div&gt;&lt;div style=&quot;font-size: 20px;&quot;&gt;&lt;font style=&quot;font-size: 20px;&quot;&gt;-&amp;nbsp;unified operational health&lt;/font&gt;&lt;/div&gt;&lt;div style=&quot;font-size: 20px;&quot;&gt;&lt;font style=&quot;font-size: 20px;&quot;&gt;-&amp;nbsp;application monitoring&lt;/font&gt;&lt;/div&gt;&lt;div style=&quot;font-size: 20px;&quot;&gt;&lt;br&gt;&lt;/div&gt;" style="text;html=1;strokeColor=default;fillColor=none;spacing=5;spacingTop=-20;whiteSpace=wrap;overflow=hidden;rounded=0;dashed=1;strokeWidth=3;resizeHeight=0;" vertex="1" parent="ovUjnCqYb-joogBGiaoR-8">
          <mxGeometry x="800" y="810" width="510" height="140" as="geometry" />
        </mxCell>
        <mxCell id="ovUjnCqYb-joogBGiaoR-40" value="" style="sketch=0;points=[[0,0,0],[0.25,0,0],[0.5,0,0],[0.75,0,0],[1,0,0],[0,1,0],[0.25,1,0],[0.5,1,0],[0.75,1,0],[1,1,0],[0,0.25,0],[0,0.5,0],[0,0.75,0],[1,0.25,0],[1,0.5,0],[1,0.75,0]];points=[[0,0,0],[0.25,0,0],[0.5,0,0],[0.75,0,0],[1,0,0],[0,1,0],[0.25,1,0],[0.5,1,0],[0.75,1,0],[1,1,0],[0,0.25,0],[0,0.5,0],[0,0.75,0],[1,0.25,0],[1,0.5,0],[1,0.75,0]];outlineConnect=0;fontColor=#232F3E;gradientColor=#F34482;gradientDirection=north;fillColor=#BC1356;strokeColor=#ffffff;dashed=0;verticalLabelPosition=bottom;verticalAlign=top;align=center;html=1;fontSize=12;fontStyle=0;aspect=fixed;shape=mxgraph.aws4.resourceIcon;resIcon=mxgraph.aws4.cloudwatch_2;" vertex="1" parent="ovUjnCqYb-joogBGiaoR-8">
          <mxGeometry x="1180" y="841" width="78" height="78" as="geometry" />
        </mxCell>
        <mxCell id="ovUjnCqYb-joogBGiaoR-48" value="" style="shape=image;html=1;verticalAlign=top;verticalLabelPosition=bottom;labelBackgroundColor=#ffffff;imageAspect=0;aspect=fixed;image=https://cdn1.iconfinder.com/data/icons/social-media-2106/24/social_media_social_media_logo_docker-128.png" vertex="1" parent="ovUjnCqYb-joogBGiaoR-8">
          <mxGeometry x="204" y="230" width="60" height="60" as="geometry" />
        </mxCell>
        <mxCell id="ovUjnCqYb-joogBGiaoR-49" value="&lt;h1&gt;Security Microservice&lt;/h1&gt;" style="text;html=1;strokeColor=default;fillColor=none;spacing=5;spacingTop=-20;whiteSpace=wrap;overflow=hidden;rounded=0;dashed=1;strokeWidth=3;" vertex="1" parent="ovUjnCqYb-joogBGiaoR-8">
          <mxGeometry x="150" y="150" width="170" height="150" as="geometry" />
        </mxCell>
        <mxCell id="ovUjnCqYb-joogBGiaoR-58" value="&lt;h1&gt;SaleModule Microservice&lt;/h1&gt;" style="text;html=1;strokeColor=default;fillColor=none;spacing=5;spacingTop=-20;whiteSpace=wrap;overflow=hidden;rounded=0;dashed=1;strokeWidth=3;" vertex="1" parent="ovUjnCqYb-joogBGiaoR-8">
          <mxGeometry x="380" y="150" width="180" height="150" as="geometry" />
        </mxCell>
        <mxCell id="ovUjnCqYb-joogBGiaoR-59" value="" style="shape=image;html=1;verticalAlign=top;verticalLabelPosition=bottom;labelBackgroundColor=#ffffff;imageAspect=0;aspect=fixed;image=https://cdn1.iconfinder.com/data/icons/social-media-2106/24/social_media_social_media_logo_docker-128.png" vertex="1" parent="ovUjnCqYb-joogBGiaoR-8">
          <mxGeometry x="430" y="220" width="70" height="70" as="geometry" />
        </mxCell>
        <mxCell id="ovUjnCqYb-joogBGiaoR-71" style="edgeStyle=orthogonalEdgeStyle;rounded=0;orthogonalLoop=1;jettySize=auto;html=1;exitX=1;exitY=0.25;exitDx=0;exitDy=0;entryX=0;entryY=0.25;entryDx=0;entryDy=0;startArrow=classic;startFill=1;strokeWidth=2;" edge="1" parent="ovUjnCqYb-joogBGiaoR-8" source="ovUjnCqYb-joogBGiaoR-60" target="ovUjnCqYb-joogBGiaoR-66">
          <mxGeometry relative="1" as="geometry" />
        </mxCell>
        <mxCell id="ovUjnCqYb-joogBGiaoR-60" value="&lt;h1&gt;Oauth Microservice&lt;/h1&gt;" style="text;html=1;strokeColor=default;fillColor=none;spacing=5;spacingTop=-20;whiteSpace=wrap;overflow=hidden;rounded=0;dashed=1;strokeWidth=3;" vertex="1" parent="ovUjnCqYb-joogBGiaoR-8">
          <mxGeometry x="600" y="150" width="180" height="150" as="geometry" />
        </mxCell>
        <mxCell id="ovUjnCqYb-joogBGiaoR-61" value="" style="shape=image;html=1;verticalAlign=top;verticalLabelPosition=bottom;labelBackgroundColor=#ffffff;imageAspect=0;aspect=fixed;image=https://cdn1.iconfinder.com/data/icons/social-media-2106/24/social_media_social_media_logo_docker-128.png" vertex="1" parent="ovUjnCqYb-joogBGiaoR-8">
          <mxGeometry x="650" y="220" width="70" height="70" as="geometry" />
        </mxCell>
        <mxCell id="ovUjnCqYb-joogBGiaoR-62" value="&lt;h1&gt;Statistics Microservice&lt;/h1&gt;" style="text;html=1;strokeColor=default;fillColor=none;spacing=5;spacingTop=-20;whiteSpace=wrap;overflow=hidden;rounded=0;dashed=1;strokeWidth=3;" vertex="1" parent="ovUjnCqYb-joogBGiaoR-8">
          <mxGeometry x="144" y="340" width="180" height="150" as="geometry" />
        </mxCell>
        <mxCell id="ovUjnCqYb-joogBGiaoR-63" value="" style="shape=image;html=1;verticalAlign=top;verticalLabelPosition=bottom;labelBackgroundColor=#ffffff;imageAspect=0;aspect=fixed;image=https://cdn1.iconfinder.com/data/icons/social-media-2106/24/social_media_social_media_logo_docker-128.png" vertex="1" parent="ovUjnCqYb-joogBGiaoR-8">
          <mxGeometry x="194" y="410" width="70" height="70" as="geometry" />
        </mxCell>
        <mxCell id="ovUjnCqYb-joogBGiaoR-64" value="&lt;h1&gt;Users Microservice&lt;/h1&gt;" style="text;html=1;strokeColor=default;fillColor=none;spacing=5;spacingTop=-20;whiteSpace=wrap;overflow=hidden;rounded=0;dashed=1;strokeWidth=3;" vertex="1" parent="ovUjnCqYb-joogBGiaoR-8">
          <mxGeometry x="380" y="340" width="180" height="150" as="geometry" />
        </mxCell>
        <mxCell id="ovUjnCqYb-joogBGiaoR-65" value="" style="shape=image;html=1;verticalAlign=top;verticalLabelPosition=bottom;labelBackgroundColor=#ffffff;imageAspect=0;aspect=fixed;image=https://cdn1.iconfinder.com/data/icons/social-media-2106/24/social_media_social_media_logo_docker-128.png" vertex="1" parent="ovUjnCqYb-joogBGiaoR-8">
          <mxGeometry x="430" y="410" width="70" height="70" as="geometry" />
        </mxCell>
        <mxCell id="ovUjnCqYb-joogBGiaoR-66" value="&lt;h1&gt;Elasticache&lt;/h1&gt;&lt;div style=&quot;&quot;&gt;&lt;font style=&quot;font-size: 20px;&quot;&gt;redis Db for auth token&lt;/font&gt;&lt;br&gt;&lt;/div&gt;&lt;div style=&quot;font-size: 20px;&quot;&gt;&lt;br&gt;&lt;/div&gt;" style="text;html=1;strokeColor=default;fillColor=none;spacing=5;spacingTop=-20;whiteSpace=wrap;overflow=hidden;rounded=0;dashed=1;strokeWidth=3;resizeHeight=0;" vertex="1" parent="ovUjnCqYb-joogBGiaoR-8">
          <mxGeometry x="890" y="120" width="180" height="220" as="geometry" />
        </mxCell>
        <mxCell id="ovUjnCqYb-joogBGiaoR-69" value="" style="image;sketch=0;aspect=fixed;html=1;points=[];align=center;fontSize=12;image=img/lib/mscae/Cache_Redis_Product.svg;" vertex="1" parent="ovUjnCqYb-joogBGiaoR-8">
          <mxGeometry x="944.28" y="250" width="71.43" height="60" as="geometry" />
        </mxCell>
        <mxCell id="ovUjnCqYb-joogBGiaoR-72" value="&lt;h1&gt;&lt;span style=&quot;background-color: initial;&quot;&gt;DocumentDb&lt;/span&gt;&lt;/h1&gt;&lt;h1&gt;&lt;span style=&quot;font-weight: normal;&quot;&gt;&lt;font style=&quot;font-size: 20px;&quot;&gt;This database is to save all the signals from the sensors connected to the vehicles and from here the statistics will be obtained.&lt;/font&gt;&lt;/span&gt;&lt;br&gt;&lt;/h1&gt;&lt;div style=&quot;font-size: 20px;&quot;&gt;&lt;br&gt;&lt;/div&gt;" style="text;html=1;strokeColor=default;fillColor=none;spacing=5;spacingTop=-20;whiteSpace=wrap;overflow=hidden;rounded=0;dashed=1;strokeWidth=3;resizeHeight=0;" vertex="1" parent="ovUjnCqYb-joogBGiaoR-8">
          <mxGeometry x="1094" y="120" width="250" height="220" as="geometry" />
        </mxCell>
        <mxCell id="ovUjnCqYb-joogBGiaoR-75" value="" style="outlineConnect=0;dashed=0;verticalLabelPosition=bottom;verticalAlign=top;align=center;html=1;shape=mxgraph.aws3.rds;fillColor=#2E73B8;gradientColor=none;" vertex="1" parent="ovUjnCqYb-joogBGiaoR-8">
          <mxGeometry x="943.71" y="500" width="72" height="81" as="geometry" />
        </mxCell>
        <mxCell id="ovUjnCqYb-joogBGiaoR-79" style="edgeStyle=orthogonalEdgeStyle;rounded=0;orthogonalLoop=1;jettySize=auto;html=1;exitX=0;exitY=0.5;exitDx=0;exitDy=0;strokeWidth=3;startArrow=classic;startFill=1;" edge="1" parent="ovUjnCqYb-joogBGiaoR-8" source="ovUjnCqYb-joogBGiaoR-76" target="ovUjnCqYb-joogBGiaoR-22">
          <mxGeometry relative="1" as="geometry" />
        </mxCell>
        <mxCell id="ovUjnCqYb-joogBGiaoR-76" value="&lt;h1&gt;RDS&lt;/h1&gt;&lt;div style=&quot;&quot;&gt;&lt;font style=&quot;font-size: 20px;&quot;&gt;This will be the main database of the business.&lt;/font&gt;&lt;br&gt;&lt;/div&gt;&lt;div style=&quot;font-size: 20px;&quot;&gt;&lt;br&gt;&lt;/div&gt;" style="text;html=1;strokeColor=default;fillColor=none;spacing=5;spacingTop=-20;whiteSpace=wrap;overflow=hidden;rounded=0;dashed=1;strokeWidth=3;resizeHeight=0;" vertex="1" parent="ovUjnCqYb-joogBGiaoR-8">
          <mxGeometry x="890" y="370" width="180" height="220" as="geometry" />
        </mxCell>
        <mxCell id="ovUjnCqYb-joogBGiaoR-78" style="edgeStyle=orthogonalEdgeStyle;rounded=0;orthogonalLoop=1;jettySize=auto;html=1;exitX=0.5;exitY=1;exitDx=0;exitDy=0;" edge="1" parent="ovUjnCqYb-joogBGiaoR-8" source="ovUjnCqYb-joogBGiaoR-76" target="ovUjnCqYb-joogBGiaoR-76">
          <mxGeometry relative="1" as="geometry" />
        </mxCell>
        <mxCell id="ovUjnCqYb-joogBGiaoR-80" value="VPC" style="sketch=0;outlineConnect=0;gradientColor=none;html=1;whiteSpace=wrap;fontSize=12;fontStyle=0;shape=mxgraph.aws4.group;grIcon=mxgraph.aws4.group_vpc;strokeColor=#879196;fillColor=none;verticalAlign=top;align=left;spacingLeft=30;fontColor=#879196;dashed=0;" vertex="1" parent="ovUjnCqYb-joogBGiaoR-8">
          <mxGeometry x="-66" y="-50" width="1410" height="1040" as="geometry" />
        </mxCell>
        <mxCell id="ovUjnCqYb-joogBGiaoR-17" value="" style="edgeStyle=orthogonalEdgeStyle;rounded=0;orthogonalLoop=1;jettySize=auto;exitX=0;exitY=0.5;exitDx=0;exitDy=0;entryX=0.963;entryY=0.864;entryDx=0;entryDy=0;fontSize=17;spacing=10;html=1;fontFamily=Helvetica;strokeWidth=3;entryPerimeter=0;" edge="1" parent="1" source="ovUjnCqYb-joogBGiaoR-12" target="ovUjnCqYb-joogBGiaoR-18">
          <mxGeometry relative="1" as="geometry">
            <mxPoint x="1072.9999999999995" y="1346.5" as="targetPoint" />
          </mxGeometry>
        </mxCell>
        <mxCell id="ovUjnCqYb-joogBGiaoR-12" value="&lt;font style=&quot;font-size: 20px;&quot;&gt;Pipeline from bitbucket CI/CD&lt;/font&gt;" style="image;html=1;image=img/lib/atlassian/Bitbucket_Logo.svg;" vertex="1" parent="1">
          <mxGeometry x="1350" y="1301.5" width="107" height="91.5" as="geometry" />
        </mxCell>
        <mxCell id="ovUjnCqYb-joogBGiaoR-27" style="edgeStyle=orthogonalEdgeStyle;rounded=0;orthogonalLoop=1;jettySize=auto;html=1;exitX=1;exitY=0.5;exitDx=0;exitDy=0;strokeWidth=3;entryX=0.001;entryY=0.848;entryDx=0;entryDy=0;entryPerimeter=0;" edge="1" parent="1" source="ovUjnCqYb-joogBGiaoR-18" target="ovUjnCqYb-joogBGiaoR-22">
          <mxGeometry relative="1" as="geometry">
            <Array as="points">
              <mxPoint x="320" y="1260" />
              <mxPoint x="320" y="820" />
            </Array>
          </mxGeometry>
        </mxCell>
        <mxCell id="ovUjnCqYb-joogBGiaoR-18" value="&lt;h1&gt;ECR&lt;/h1&gt;&lt;div&gt;&lt;h1 style=&quot;border-color: var(--border-color);&quot;&gt;&lt;span style=&quot;font-weight: normal;&quot;&gt;Elastic Containter Registry&lt;/span&gt;&lt;/h1&gt;&lt;/div&gt;" style="text;html=1;strokeColor=default;fillColor=none;spacing=5;spacingTop=-20;whiteSpace=wrap;overflow=hidden;rounded=0;dashed=1;strokeWidth=3;resizeHeight=0;" vertex="1" parent="1">
          <mxGeometry x="9" y="1160" width="240" height="240" as="geometry" />
        </mxCell>
        <mxCell id="ovUjnCqYb-joogBGiaoR-20" value="" style="sketch=0;points=[[0,0,0],[0.25,0,0],[0.5,0,0],[0.75,0,0],[1,0,0],[0,1,0],[0.25,1,0],[0.5,1,0],[0.75,1,0],[1,1,0],[0,0.25,0],[0,0.5,0],[0,0.75,0],[1,0.25,0],[1,0.5,0],[1,0.75,0]];outlineConnect=0;fontColor=#232F3E;gradientColor=#F78E04;gradientDirection=north;fillColor=#D05C17;strokeColor=#ffffff;dashed=0;verticalLabelPosition=bottom;verticalAlign=top;align=center;html=1;fontSize=12;fontStyle=0;aspect=fixed;shape=mxgraph.aws4.resourceIcon;resIcon=mxgraph.aws4.ecr;" vertex="1" parent="1">
          <mxGeometry x="90" y="1290" width="78" height="78" as="geometry" />
        </mxCell>
        <mxCell id="ovUjnCqYb-joogBGiaoR-28" value="&lt;font style=&quot;font-size: 20px;&quot;&gt;&lt;br&gt;&lt;/font&gt;" style="outlineConnect=0;dashed=0;verticalLabelPosition=bottom;verticalAlign=top;align=center;html=1;shape=mxgraph.aws3.classic_load_balancer;fillColor=#F58536;gradientColor=none;" vertex="1" parent="1">
          <mxGeometry x="90" y="750" width="69" height="72" as="geometry" />
        </mxCell>
        <mxCell id="ovUjnCqYb-joogBGiaoR-31" style="edgeStyle=orthogonalEdgeStyle;rounded=0;orthogonalLoop=1;jettySize=auto;html=1;exitX=1.035;exitY=0.061;exitDx=0;exitDy=0;entryX=0.001;entryY=0.276;entryDx=0;entryDy=0;entryPerimeter=0;strokeWidth=3;startArrow=classic;startFill=1;exitPerimeter=0;" edge="1" parent="1" source="ovUjnCqYb-joogBGiaoR-29" target="ovUjnCqYb-joogBGiaoR-22">
          <mxGeometry relative="1" as="geometry" />
        </mxCell>
        <mxCell id="ovUjnCqYb-joogBGiaoR-34" style="edgeStyle=orthogonalEdgeStyle;rounded=0;orthogonalLoop=1;jettySize=auto;html=1;exitX=0.75;exitY=1;exitDx=0;exitDy=0;entryX=0.75;entryY=0;entryDx=0;entryDy=0;strokeWidth=3;" edge="1" parent="1" source="ovUjnCqYb-joogBGiaoR-32" target="ovUjnCqYb-joogBGiaoR-29">
          <mxGeometry relative="1" as="geometry" />
        </mxCell>
        <mxCell id="ovUjnCqYb-joogBGiaoR-32" value="&lt;h1 style=&quot;&quot;&gt;&lt;font style=&quot;font-size: 24px;&quot;&gt;&lt;b style=&quot;border-color: var(--border-color); text-align: center;&quot;&gt;Route 53&lt;/b&gt;&lt;/font&gt;&lt;/h1&gt;&lt;h1 style=&quot;&quot;&gt;&lt;span style=&quot;font-weight: normal;&quot;&gt;subdomain&lt;/span&gt;&lt;br&gt;&lt;/h1&gt;" style="text;html=1;strokeColor=default;fillColor=none;spacing=5;spacingTop=-20;whiteSpace=wrap;overflow=hidden;rounded=0;dashed=1;strokeWidth=3;resizeHeight=0;" vertex="1" parent="1">
          <mxGeometry x="9" y="280" width="240" height="240" as="geometry" />
        </mxCell>
        <mxCell id="ovUjnCqYb-joogBGiaoR-36" value="" style="sketch=0;points=[[0,0,0],[0.25,0,0],[0.5,0,0],[0.75,0,0],[1,0,0],[0,1,0],[0.25,1,0],[0.5,1,0],[0.75,1,0],[1,1,0],[0,0.25,0],[0,0.5,0],[0,0.75,0],[1,0.25,0],[1,0.5,0],[1,0.75,0]];outlineConnect=0;fontColor=#232F3E;gradientColor=#945DF2;gradientDirection=north;fillColor=#5A30B5;strokeColor=#ffffff;dashed=0;verticalLabelPosition=bottom;verticalAlign=top;align=center;html=1;fontSize=12;fontStyle=0;aspect=fixed;shape=mxgraph.aws4.resourceIcon;resIcon=mxgraph.aws4.route_53;" vertex="1" parent="1">
          <mxGeometry x="81" y="399" width="78" height="78" as="geometry" />
        </mxCell>
        <mxCell id="ovUjnCqYb-joogBGiaoR-43" value="&lt;h1 style=&quot;&quot;&gt;&lt;font style=&quot;font-size: 24px;&quot;&gt;&lt;b style=&quot;border-color: var(--border-color); text-align: center;&quot;&gt;ACM&lt;/b&gt;&lt;/font&gt;&lt;/h1&gt;&lt;h1 style=&quot;&quot;&gt;&lt;span style=&quot;font-weight: 400;&quot;&gt;Amazon Certificate Manager&lt;/span&gt;&lt;/h1&gt;" style="text;html=1;strokeColor=default;fillColor=none;spacing=5;spacingTop=-20;whiteSpace=wrap;overflow=hidden;rounded=0;dashed=1;strokeWidth=3;resizeHeight=0;" vertex="1" parent="1">
          <mxGeometry x="9" y="900" width="240" height="240" as="geometry" />
        </mxCell>
        <mxCell id="ovUjnCqYb-joogBGiaoR-45" value="" style="outlineConnect=0;dashed=0;verticalLabelPosition=bottom;verticalAlign=top;align=center;html=1;shape=mxgraph.aws3.certificate_manager_2;fillColor=#759C3E;gradientColor=none;" vertex="1" parent="1">
          <mxGeometry x="87.75" y="1020" width="73.5" height="63" as="geometry" />
        </mxCell>
      </root>
    </mxGraphModel>
  </diagram>
</mxfile>
